<svg width="200" height="48" viewBox="0 0 200 48" fill="none" xmlns="http://www.w3.org/2000/svg">
<g clip-path="url(#clip0_383_229)">
<path d="M128.123 24.9587H122.213C121.542 24.9587 120.92 24.6145 120.56 24.041C120.2 23.4674 120.183 22.7463 120.478 22.1564L129.858 3.55615C121.346 4.06418 114.602 11.1273 114.602 19.7801C114.602 27.2202 119.611 33.4967 126.42 35.4141L128.106 24.9751L128.123 24.9587Z" fill="#2766A7"/>
<path d="M135.26 4.12967L133.557 14.6015H139.466C140.138 14.6015 140.76 14.9456 141.12 15.5192C141.48 16.0928 141.496 16.8139 141.202 17.4038L131.838 35.9713C140.334 35.4632 147.078 28.4001 147.078 19.7473C147.078 12.3072 142.086 6.03066 135.26 4.11328V4.12967Z" fill="#2766A7"/>
<path d="M22.1475 48V40.1174H23.6371L27.3529 44.8863L30.9869 40.1174H32.4601V48H30.7577V43.1328C30.7577 43.0345 30.7577 42.9198 30.7741 42.7723C30.7904 42.6248 30.8068 42.4609 30.8232 42.2806C30.725 42.4773 30.6431 42.6575 30.5613 42.7887C30.4794 42.9198 30.414 43.0345 30.3648 43.1164L27.402 47.0495H27.0419L24.079 43.1C23.9645 42.9525 23.8826 42.805 23.8008 42.6739C23.7189 42.5428 23.6534 42.4117 23.6043 42.297C23.6043 42.4609 23.6371 42.6084 23.6371 42.7395C23.6371 42.8706 23.6371 43.0017 23.6371 43.1328V48H22.1475Z" fill="#111827"/>
<path d="M41.463 40.1174V46.5087H46.6848V40.1174H48.5018V46.1318C48.5018 46.8528 48.3709 47.3445 48.0926 47.6067C47.8307 47.8689 47.3068 48 46.5375 48H41.5612C40.8082 48 40.2844 47.8689 40.0225 47.6067C39.7442 47.3445 39.6133 46.8528 39.6133 46.1318V40.1174H41.4466H41.463ZM43.3127 41.8382V40.1338H44.8351V41.8382H43.3127Z" fill="#111827"/>
<path d="M55.9009 48V40.1174H57.7342V43.182H63.4635V40.1174H65.3132V48H63.4635V44.6077H57.7342V48H55.9009Z" fill="#111827"/>
<path d="M72.6797 48V40.1174H80.7334V41.4612H74.513V43.2147H78.147V44.5585H74.513V46.5087H80.8152V48H72.6797Z" fill="#111827"/>
<path d="M87.543 48V40.1174H88.787L94.3362 44.7716C94.5327 44.9191 94.6964 45.0666 94.8273 45.2141C94.9746 45.3452 95.1056 45.4926 95.2202 45.6401C95.1874 45.1977 95.1711 44.8863 95.1547 44.706C95.1383 44.5258 95.1547 44.3783 95.1547 44.2799V40.1338H96.808V48.0164H95.5639L89.7856 43.1492C89.6382 43.0181 89.5237 42.9198 89.4254 42.8214C89.3272 42.7231 89.229 42.6248 89.1308 42.5101C89.1635 42.7559 89.1799 42.9853 89.1799 43.1983C89.1799 43.4114 89.1963 43.608 89.1963 43.7555V48.0164H87.543V48Z" fill="#111827"/>
<path d="M104.174 48V40.1174H109.232C110.672 40.1174 111.786 40.4616 112.571 41.1335C113.341 41.8054 113.734 42.7723 113.734 44.0177C113.734 44.7552 113.586 45.4107 113.275 46.0007C112.981 46.5906 112.539 47.0495 111.998 47.3936C111.655 47.6067 111.229 47.7706 110.722 47.8525C110.214 47.9344 109.559 48 108.774 48H104.174ZM106.007 46.5251H108.381C109.641 46.5251 110.541 46.3284 111.065 45.9351C111.589 45.5418 111.851 44.8863 111.851 43.985C111.851 43.182 111.638 42.5756 111.196 42.1495C110.754 41.7398 110.116 41.5268 109.265 41.5268H106.024V46.5087L106.007 46.5251Z" fill="#111827"/>
<path d="M120.461 41.9365V40.1174H122.295V41.1171L120.461 41.9201V41.9365Z" fill="#111827"/>
<path d="M136.487 41.5104H131.331V43.1983H136.242C137.011 43.1983 137.535 43.3294 137.797 43.5916C138.075 43.8538 138.206 44.3455 138.206 45.0665V46.1481C138.206 46.8692 138.075 47.3608 137.797 47.623C137.518 47.8852 137.011 48.0163 136.242 48.0163H131.38C130.61 48.0163 130.087 47.8852 129.825 47.623C129.546 47.3608 129.416 46.8692 129.416 46.1481V45.9351L131.036 45.6073V46.5414H136.602V44.7388H131.691C130.922 44.7388 130.414 44.6077 130.136 44.3455C129.874 44.0833 129.727 43.5916 129.727 42.8706V42.002C129.727 41.2809 129.858 40.7893 130.136 40.5271C130.398 40.2649 130.922 40.1338 131.691 40.1338H136.16C136.896 40.1338 137.404 40.2649 137.698 40.5107C137.993 40.7565 138.124 41.2154 138.124 41.8545V42.0184L136.503 42.3953V41.494L136.487 41.5104Z" fill="#111827"/>
<path d="M145.359 48V40.1174H147.192V46.5087H153.102V48H145.359Z" fill="#111827"/>
<path d="M168.358 48V40.1174H170.208V43.4114L174.578 40.1174H177.23L172.008 43.8375L177.868 48H174.922L170.208 44.5258V48H168.358Z" fill="#111827"/>
<path d="M120.461 47.9999V42.8213L122.295 42.002V47.9999H120.461Z" fill="#111827"/>
<path d="M159.142 41.9365V40.1174H160.975V41.1171L159.142 41.9201V41.9365Z" fill="#111827"/>
<path d="M159.142 47.9999V42.8213L160.975 42.002V47.9999H159.142Z" fill="#111827"/>
<path d="M16.1565 10.8651L8.7412 19.5179C11.2948 22.3366 14.2413 25.6305 16.7785 28.5312V28.8425H10.3781L5.15633 22.7463V28.8425H0V10.5537H5.1727V16.568C6.74415 14.6343 8.43018 12.4875 9.9689 10.5537H16.1565V10.8651Z" fill="#111827"/>
<path d="M35.3084 10.5701V20.7961C35.3411 26.2041 32.0509 29.2358 26.6981 29.2358C21.3454 29.2358 18.0879 26.3352 18.0879 20.7469V10.5865H23.2278V20.7469C23.2278 23.6148 24.6029 24.8275 26.6981 24.8275C28.7934 24.8275 30.1684 23.5656 30.1684 20.7961V10.5701H35.3084Z" fill="#111827"/>
<path d="M55.6719 28.8425H49.9754L45.7194 22.9101H43.9188V28.8425H38.7461V10.5537H47.6674C52.3326 10.5537 54.7716 13.5527 54.7716 16.8466C54.7716 19.0918 53.9859 21.0092 50.9085 22.353L55.6556 28.5148V28.8262L55.6719 28.8425ZM43.9188 14.6834V19.0754H47.7328C49.0915 19.0754 49.6972 18.0593 49.6972 16.9614C49.6972 15.8634 49.0424 14.6834 47.6837 14.6834H43.9188Z" fill="#111827"/>
<path d="M67.3269 10.5537C70.9772 10.5537 73.9564 12.1761 73.9564 15.6831C73.9564 17.0761 73.5472 18.5018 71.943 19.2393C73.6454 20.157 74.4802 21.8449 74.4802 23.5001C74.4802 27.5971 70.748 28.8262 67.4087 28.8589H57.98V10.5537H67.3269ZM63.0708 17.5349H67.1959C68.2599 17.5349 68.8328 16.9941 68.8328 16.1747C68.8328 15.3553 68.2599 14.7326 67.245 14.7326H63.0708V17.5349ZM63.0708 24.8275H67.4251C68.7346 24.8275 69.3566 24.1228 69.3566 23.1068C69.3566 22.0908 68.7019 21.3533 67.4251 21.3533H63.0708V24.8275Z" fill="#111827"/>
<path d="M89.5564 25.8436H81.3881L80.1932 28.8425H74.7095L82.9105 10.5537H88.1323L96.3006 28.8425H90.7677L89.5728 25.8436H89.5564ZM85.4968 15.6667L83.1397 21.5008H87.8049L85.4805 15.6667H85.4968Z" fill="#111827"/>
<path d="M172.238 10.5537V24.4506H180.979V28.8425H167.065V10.5537H172.238Z" fill="#111827"/>
<path d="M200 10.5701V20.7961C200.033 26.2041 196.742 29.2358 191.39 29.2358C186.037 29.2358 182.779 26.3352 182.779 20.7469V10.5865H187.919V20.7469C187.919 23.6148 189.311 24.8275 191.39 24.8275C193.468 24.8275 194.86 23.5656 194.86 20.7961V10.5701H200Z" fill="#111827"/>
<path d="M114.683 28.8425C113.144 26.1386 112.261 23.0249 112.261 19.6981C112.261 16.3714 113.144 13.2577 114.683 10.5537H109.707V16.8303C109.74 17.5349 109.74 18.3707 109.871 20.5667L102.144 10.5537H97.7573V28.8425H102.979V22.9921L102.897 18.9935L110.525 28.8425H114.7H114.683Z" fill="#111827"/>
<path d="M155.214 17.6333V21.6811H159.83V24.0246C158.782 24.7784 157.276 24.9587 156.31 24.9587C152.627 24.9587 151.4 22.058 151.4 19.6982C151.4 16.1256 153.331 14.3394 156.31 14.3394C157.538 14.3394 159.159 14.6835 160.485 15.929L163.48 12.9464C161.074 10.521 158.831 9.99658 156.31 9.99658C152.595 9.99658 149.976 11.4387 148.355 13.5364C149.026 15.4537 149.419 17.5186 149.419 19.6654C149.419 21.8122 149.026 23.9426 148.322 25.942C149.894 27.9413 152.464 29.3178 156.294 29.3178C159.814 29.3178 163.006 28.056 164.151 25.7453V17.6169H155.23L155.214 17.6333Z" fill="#111827"/>
<path d="M149.19 7.68578L151.367 9.86536C152.693 9.29179 154.314 8.88209 156.327 8.88209C157.849 8.88209 159.453 9.04597 161.14 9.83259L163.268 7.70217C160.73 6.22726 158.308 5.98145 156.343 5.98145C153.364 5.98145 151.023 6.68612 149.206 7.66939L149.19 7.68578Z" fill="#111827"/>
<path d="M122.213 23.0249C126.142 15.2243 129.988 7.60396 133.819 0C133.868 0 133.917 0.0327757 133.966 0.0491635C133.082 5.50632 132.198 10.9471 131.298 16.5517H139.482C135.554 24.3359 131.723 31.9399 127.893 39.5439C127.844 39.5275 127.795 39.5111 127.746 39.4947C128.63 34.0703 129.497 28.6296 130.414 23.0413H122.229L122.213 23.0249Z" fill="#009BE3"/>
</g>
<defs>
<clipPath id="clip0_383_229">
<rect width="200" height="48" fill="white"/>
</clipPath>
</defs>
</svg>
