<svg width="40" height="40" viewBox="0 0 40 40" fill="none" xmlns="http://www.w3.org/2000/svg">
<rect width="40" height="40" rx="20" fill="#111827"/>
<path d="M15.6071 17.2758V26.6808H13.2891V17.2758H15.6071ZM13.0801 14.6728C13.0801 16.4778 15.8161 16.4778 15.8161 14.6728C15.8161 12.8678 13.0801 12.8678 13.0801 14.6728Z" fill="white"/>
<path d="M26.9201 26.6808H24.6021V21.7788C24.6021 20.3538 23.8231 19.2708 22.3411 19.2708C20.9161 19.2708 19.9471 20.4678 19.9471 21.8928V26.6808H17.6481V17.2948H19.7191L19.8711 18.5678C20.8211 17.6368 21.7711 17.1618 22.9491 17.1618C25.1531 17.1618 26.9201 18.8148 26.9201 21.7598V26.6808Z" fill="white"/>
</svg>
