<svg width="33" height="40" viewBox="0 0 33 40" fill="none" xmlns="http://www.w3.org/2000/svg">
<path d="M13.521 24.9587H7.61172C6.94058 24.9587 6.31855 24.6145 5.95842 24.041C5.5983 23.4674 5.58192 22.7463 5.87657 22.1564L15.2562 3.55615C6.74415 4.06418 0 11.1273 0 19.7801C0 27.2202 5.00901 33.4967 11.8186 35.4141L13.5047 24.9751L13.521 24.9587Z" fill="#064A81"/>
<path d="M20.6585 4.12967L18.9561 14.6015H24.8654C25.5365 14.6015 26.1586 14.9456 26.5187 15.5192C26.8788 16.0928 26.8952 16.8139 26.6005 17.4038L17.2373 35.9713C25.733 35.4632 32.4771 28.4001 32.4771 19.7473C32.4771 12.3072 27.4845 6.03066 20.6585 4.11328V4.12967Z" fill="#064A81"/>
<path d="M7.61133 23.0249C11.54 15.2243 15.3867 7.60396 19.2171 0C19.2663 0 19.3154 0.0327757 19.3645 0.0491635C18.4805 5.50632 17.5966 10.9471 16.6963 16.5517H24.8809C20.9523 24.336 17.1219 31.9399 13.2915 39.5439C13.2424 39.5275 13.1933 39.5111 13.1441 39.4947C14.0281 34.0703 14.8957 28.6296 15.8123 23.0413H7.62769L7.61133 23.0249Z" fill="#064A81"/>
</svg>
