<svg width="32" height="32" viewBox="0 0 32 32" fill="none" xmlns="http://www.w3.org/2000/svg">
<path d="M20.7732 16C20.7732 18.64 18.6399 20.7734 15.9999 20.7734C13.3599 20.7734 11.2266 18.64 11.2266 16C11.2266 13.36 13.3599 11.2267 15.9999 11.2267C18.6399 11.2267 20.7732 13.36 20.7732 16Z" stroke="#111827" stroke-width="3" stroke-linecap="round" stroke-linejoin="round"/>
<path d="M15.9998 27.0267C20.7065 27.0267 25.0931 24.2534 28.1465 19.4534C29.3465 17.5734 29.3465 14.4134 28.1465 12.5334C25.0931 7.73335 20.7065 4.96002 15.9998 4.96002C11.2931 4.96002 6.90646 7.73335 3.85312 12.5334C2.65312 14.4134 2.65312 17.5734 3.85312 19.4534C6.90646 24.2534 11.2931 27.0267 15.9998 27.0267Z" stroke="#111827" stroke-width="3" stroke-linecap="round" stroke-linejoin="round"/>
</svg>
